<svg width="32" height="32" viewBox="0 0 32 32" fill="none" xmlns="http://www.w3.org/2000/svg">
<path d="M29.8181 13.0909H18.909V2.18182C18.909 0.97745 17.9316 0 16.7272 0H15.2727C14.0684 0 13.0909 0.97745 13.0909 2.18182V13.0909H2.18182C0.97745 13.0909 0 14.0684 0 15.2727V16.7272C0 17.9316 0.97745 18.909 2.18182 18.909H13.0909V29.8181C13.0909 31.0225 14.0684 31.9999 15.2727 31.9999H16.7272C17.9316 31.9999 18.909 31.0225 18.909 29.8181V18.909H29.8181C31.0225 18.909 31.9999 17.9316 31.9999 16.7272V15.2727C31.9999 14.0684 31.0225 13.0909 29.8181 13.0909Z" fill="#D2D2D2"/>
</svg>
