<svg width="32" height="32" viewBox="0 0 32 32" fill="none" xmlns="http://www.w3.org/2000/svg">
<circle cx="16" cy="16" r="16" fill="white" fill-opacity="0.24"/>
<g clip-path="url(#clip0_119_1175)">
<path fill-rule="evenodd" clip-rule="evenodd" d="M15.9996 9.52864C16.6507 9.52864 17.2758 9.64352 17.856 9.85384V9.78238C17.856 8.79957 17.0564 8 16.0736 8H15.9259C14.9431 8 14.1436 8.79957 14.1436 9.78238V9.85293C14.7234 9.64324 15.3484 9.52864 15.9996 9.52864ZM13.7876 22.5566C14.1632 23.4058 15.0132 24 15.9998 24C16.9864 24 17.8364 23.4058 18.212 22.5566H13.7876ZM10.1411 21.6176H21.8585C22.0802 21.6176 22.2832 21.4681 22.3293 21.2512C22.375 21.0365 22.2771 20.8246 22.0786 20.7329C22.0314 20.7024 21.6769 20.4544 21.3219 19.7043C20.6699 18.3267 20.5331 16.3862 20.5331 15.0008C20.5331 14.9948 20.5329 14.9888 20.5327 14.9828C20.5231 12.4914 18.4933 10.4677 15.9996 10.4677C13.5001 10.4677 11.4665 12.5012 11.4665 15.0008C11.4665 16.3862 11.3296 18.3267 10.6777 19.7043C10.3227 20.4544 9.96808 20.7024 9.92097 20.7329C9.72246 20.8246 9.62461 21.0365 9.67025 21.2512C9.71635 21.4681 9.91941 21.6176 10.1411 21.6176Z" fill="url(#paint0_linear_119_1175)"/>
</g>
<circle cx="28" cy="4" r="3.5" fill="white" stroke="white"/>
<defs>
<linearGradient id="paint0_linear_119_1175" x1="15.9998" y1="8" x2="15.9998" y2="24" gradientUnits="userSpaceOnUse">
<stop stop-color="#FFF5F5"/>
<stop offset="1" stop-color="#FFE1E2"/>
</linearGradient>
<clipPath id="clip0_119_1175">
<rect width="16" height="16" fill="white" transform="translate(8 8)"/>
</clipPath>
</defs>
</svg>
