<svg width="18" height="18" viewBox="0 0 18 18" fill="none" xmlns="http://www.w3.org/2000/svg">
<circle cx="9.42885" cy="9.42854" r="7.57143" fill="#FFEF61" stroke="white" stroke-width="2"/>
<g clip-path="url(#clip0_124_565)">
<path d="M13.3768 8.35804C13.3781 8.38162 13.3763 8.40562 13.3704 8.42946L12.8417 10.5443C12.815 10.6508 12.7196 10.7257 12.6098 10.7263L9.43755 10.7423C9.43714 10.7423 9.43675 10.7423 9.43634 10.7423H6.26407C6.15372 10.7423 6.05756 10.6672 6.0309 10.5601L5.50219 8.43725C5.49611 8.41277 5.49434 8.38809 5.49588 8.3639C5.29135 8.29946 5.14258 8.10807 5.14258 7.88252C5.14258 7.60423 5.36896 7.37785 5.64725 7.37785C5.92554 7.37785 6.15192 7.60423 6.15192 7.88252C6.15192 8.03924 6.08012 8.17946 5.96768 8.2721L6.62962 8.93903C6.79691 9.10761 7.02906 9.20425 7.26656 9.20425C7.54738 9.20425 7.81513 9.07089 7.98374 8.84746L9.07159 7.40605C8.98021 7.31473 8.92362 7.18854 8.92362 7.04941C8.92362 6.77112 9.15 6.54474 9.42829 6.54474C9.70658 6.54474 9.93297 6.77112 9.93297 7.04941C9.93297 7.18438 9.87939 7.30687 9.79278 7.39752C9.79307 7.39791 9.79342 7.39823 9.79371 7.39865L10.8737 8.84403C11.0422 9.06961 11.3109 9.20428 11.5926 9.20428C11.8322 9.20428 12.0576 9.11094 12.2271 8.94144L12.8932 8.27533C12.7784 8.18273 12.7047 8.04117 12.7047 7.88252C12.7047 7.60423 12.931 7.37785 13.2093 7.37785C13.4876 7.37785 13.714 7.60423 13.714 7.88252C13.714 8.10205 13.5729 8.28876 13.3768 8.35804ZM12.7901 11.4953C12.7901 11.3626 12.6825 11.255 12.5498 11.255H6.33351C6.20079 11.255 6.09319 11.3626 6.09319 11.4953V12.0721C6.09319 12.2048 6.20079 12.3124 6.33351 12.3124H12.5498C12.6825 12.3124 12.7901 12.2048 12.7901 12.0721V11.4953Z" fill="#FE616B"/>
</g>
<defs>
<clipPath id="clip0_124_565">
<rect width="8.57143" height="8.57143" fill="white" transform="translate(5.14258 5.14288)"/>
</clipPath>
</defs>
</svg>
